<?xml version="1.0" encoding="iso-8859-1"?>
<!-- Generator: Adobe Illustrator 19.0.0, SVG Export Plug-In . SVG Version: 6.00 Build 0)  -->
<svg version="1.1" id="Capa_1" xmlns="http://www.w3.org/2000/svg" xmlns:xlink="http://www.w3.org/1999/xlink" x="0px" y="0px"
	 viewBox="0 0 512.22 512.22" style="enable-background:new 0 0 512.22 512.22;" xml:space="preserve">
<g>
	<g>
		<path d="M492.97,308.128L481.43,273.5c-3.48-10.456-13.267-17.508-24.287-17.5h-115.7c0-0.918-0.147-1.829-0.438-2.7
			l-4.777-14.367h18.015c7.929,0.031,15.539-3.114,21.133-8.733c8.533-8.55,11.081-21.395,6.457-32.554
			c-4.624-11.159-15.511-18.438-27.59-18.446h-37.952l-7.498-22.625c-2.404-6.874-8.88-11.486-16.162-11.508h-10.921v-25.6h25.6
			c14.132-0.015,25.585-11.468,25.6-25.6h170.667c4.713,0,8.533-3.821,8.533-8.533s-3.82-8.533-8.533-8.533H331.337
			c-3.592-10.199-13.214-17.033-24.028-17.067h-25.6V51.2c-0.013-10.846-6.846-20.511-17.067-24.142V8.533
			c0-4.713-3.82-8.533-8.533-8.533c-4.713,0-8.533,3.82-8.533,8.533v18.639c-10.199,3.592-17.033,13.214-17.067,24.028v8.533h-25.6
			c-10.813,0.033-20.435,6.868-24.028,17.067H8.643c-4.713,0-8.533,3.82-8.533,8.533s3.82,8.533,8.533,8.533h170.667
			c0.015,14.132,11.468,25.585,25.6,25.6h25.6v25.6h-10.921c-7.332,0.037-13.837,4.712-16.208,11.65l-7.447,22.483h-37.957
			c-7.929-0.031-15.54,3.114-21.133,8.733c-8.533,8.55-11.081,21.395-6.457,32.554c4.624,11.159,15.511,18.438,27.59,18.446h18.015
			l-4.777,14.367c-0.29,0.871-0.438,1.782-0.438,2.7h-115.7c-11.021-0.008-20.807,7.043-24.288,17.5l-11.54,34.628
			c-12.019,3.137-20.051,14.449-19.051,26.83c1,12.381,10.745,22.257,23.111,23.423c12.366,1.166,23.785-6.714,27.082-18.69
			c3.297-11.976-2.479-24.59-13.7-29.918L46.98,278.9c1.158-3.487,4.422-5.838,8.096-5.833h30.367V307.2
			c-9.421,0.011-17.056,7.646-17.067,17.067v17.067c0.011,9.421,7.645,17.056,17.067,17.067h17.067
			c9.421-0.011,17.056-7.646,17.067-17.067v-17.067c-0.011-9.421-7.645-17.056-17.067-17.067v-34.133h68.267v20.326l-24.692,12.349
			c-5.805,2.868-9.468,8.792-9.442,15.267v45.925c0.011,9.421,7.646,17.056,17.067,17.067h8.533v18.639
			c-10.199,3.592-17.033,13.214-17.067,24.028v25.6c0,14.138,11.462,25.6,25.6,25.6s25.6-11.462,25.6-25.6v-25.6
			c-0.033-10.813-6.868-20.435-17.067-24.028v-18.462c16.873,3.619,33.983,6.023,51.2,7.192v44.049
			c-14.692,11.019-20.685,30.203-14.878,47.626c5.808,17.423,22.112,29.175,40.478,29.175s34.67-11.752,40.478-29.175
			c5.807-17.423-0.185-36.607-14.878-47.626v-44.049c17.217-1.17,34.327-3.573,51.2-7.192v18.462
			c-10.199,3.592-17.033,13.214-17.067,24.028v25.6c0,14.138,11.462,25.6,25.6,25.6c14.138,0,25.6-11.462,25.6-25.6v-25.6
			c-0.033-10.813-6.868-20.435-17.067-24.028V384h8.533c9.421-0.011,17.056-7.645,17.067-17.067v-45.925
			c0.027-6.472-3.633-12.395-9.433-15.267l-24.7-12.35v-20.325h68.267V307.2c-9.421,0.011-17.056,7.646-17.067,17.067v17.067
			c0.011,9.421,7.646,17.056,17.067,17.067h17.067c9.421-0.011,17.056-7.646,17.067-17.067v-17.067
			c-0.011-9.421-7.645-17.056-17.067-17.067v-34.133h30.367c3.674-0.005,6.938,2.346,8.096,5.833l10.289,30.872
			c-11.223,5.328-17.002,17.945-13.704,29.924c3.297,11.978,14.719,19.861,27.088,18.694c12.369-1.166,22.116-11.045,23.116-23.428
			C513.027,322.578,504.992,311.264,492.97,308.128z M281.709,76.8h25.6c4.711,0.005,8.529,3.822,8.533,8.533v8.533
			c-0.005,4.711-3.822,8.529-8.533,8.533h-25.6V76.8z M25.709,341.333c-4.713,0-8.533-3.821-8.533-8.533
			c0-4.713,3.82-8.533,8.533-8.533s8.533,3.821,8.533,8.533C34.238,337.511,30.42,341.329,25.709,341.333z M102.522,341.333H85.443
			v-17.067h17.067L102.522,341.333z M321.078,247.467h-39.373l12.8-17.067h20.898L321.078,247.467z M247.576,51.2
			c0-4.713,3.82-8.533,8.533-8.533c4.713,0,8.533,3.82,8.533,8.533v93.867h-8.533h-8.533V51.2z M204.909,102.4
			c-4.711-0.005-8.529-3.822-8.533-8.533v-8.533c0.005-4.711,3.822-8.529,8.533-8.533h25.6v25.6H204.909z M209.751,191.5
			c0.171-0.351,0.319-0.713,0.442-1.084l9.396-28.283h36.521h36.546l9.371,28.283c0.12,0.366,0.266,0.722,0.438,1.067l7.266,21.85
			H202.491L209.751,191.5z M273.18,230.4l-12.8,17.067h-21.342l12.8-17.067H273.18z M196.816,230.4h33.698l-12.8,17.067H191.14
			L196.816,230.4z M153.709,366.933v-45.925l17.067-8.533v54.458H153.709z M179.309,452.267c0,4.713-3.82,8.533-8.533,8.533
			s-8.533-3.821-8.533-8.533v-25.6c0-4.713,3.82-8.533,8.533-8.533s8.533,3.82,8.533,8.533V452.267z M157.976,221.867
			c-7.069,0-12.8-5.731-12.8-12.8c0-7.069,5.731-12.8,12.8-12.8h32.201l-8.512,25.6H157.976z M256.109,494.933
			c-14.138,0-25.6-11.461-25.6-25.6s11.461-25.6,25.6-25.6c14.138,0,25.6,11.462,25.6,25.6
			C281.694,483.465,270.241,494.918,256.109,494.933z M247.576,427.529v-35.382c2.845,0.066,5.688,0.228,8.533,0.228
			c2.846,0,5.688-0.162,8.533-0.228v35.382C259.012,426.379,253.207,426.379,247.576,427.529z M290.243,373.558
			c-22.701,2.229-45.566,2.229-68.267,0v-74.891c0.005-4.711,3.822-8.529,8.533-8.533h51.2c4.711,0.005,8.529,3.822,8.533,8.533
			V373.558z M324.376,368.425c-5.661,1.14-11.35,2.14-17.067,3.001v-72.759c-0.015-14.132-11.468-25.585-25.6-25.6h-51.2
			c-14.132,0.015-25.585,11.468-25.6,25.6v72.759c-5.72-0.852-11.409-1.852-17.067-3.001V264.533h136.533V368.425z M330.554,221.867
			l-8.512-25.6h32.201c7.066,0.008,12.792,5.734,12.8,12.8c0.016,3.4-1.327,6.665-3.731,9.069c-2.404,2.404-5.669,3.747-9.069,3.731
			H330.554z M349.976,452.267c0,4.713-3.82,8.533-8.533,8.533s-8.533-3.821-8.533-8.533v-25.6c0-4.713,3.821-8.533,8.533-8.533
			s8.533,3.82,8.533,8.533V452.267z M358.509,321.008v45.925h-17.067v-54.458L358.509,321.008z M426.776,341.333h-17.067v-17.067
			h17.067V341.333z M486.509,341.333c-4.713,0-8.533-3.821-8.533-8.533c0-4.713,3.82-8.533,8.533-8.533s8.533,3.821,8.533,8.533
			C495.038,337.511,491.22,341.329,486.509,341.333z"/>
	</g>
</g>
<g>
</g>
<g>
</g>
<g>
</g>
<g>
</g>
<g>
</g>
<g>
</g>
<g>
</g>
<g>
</g>
<g>
</g>
<g>
</g>
<g>
</g>
<g>
</g>
<g>
</g>
<g>
</g>
<g>
</g>
</svg>
